<?xml version="1.0" standalone="no"?>
<!DOCTYPE svg PUBLIC "-//W3C//DTD SVG 20010904//EN"
 "http://www.w3.org/TR/2001/REC-SVG-20010904/DTD/svg10.dtd">
<svg version="1.0" xmlns="http://www.w3.org/2000/svg"
 width="1024.000000pt" height="1024.000000pt" viewBox="0 0 1024.000000 1024.000000"
 preserveAspectRatio="xMidYMid meet">

<g transform="translate(0.000000,1024.000000) scale(0.100000,-0.100000)"
fill="#000000" stroke="none">
<path d="M5079 8900 c-428 -68 -1039 -409 -1769 -988 -199 -158 -389 -322
-443 -382 -73 -81 -90 -194 -38 -252 25 -29 35 -32 94 -36 90 -6 139 13 250
96 166 124 983 674 1097 739 137 77 288 109 470 99 244 -14 465 -60 792 -165
86 -27 206 -59 265 -71 193 -37 178 -31 181 -69 l3 -34 -118 6 c-122 5 -169
15 -498 107 -474 132 -783 147 -991 49 -34 -16 -67 -36 -75 -45 -23 -28 -17
-121 13 -186 29 -62 42 -73 108 -82 378 -57 712 -149 1054 -288 550 -224 669
-265 856 -293 396 -61 755 61 1159 393 193 159 448 428 548 578 l36 54 -58 77
c-126 168 -270 324 -380 411 l-50 40 -85 -43 c-112 -56 -239 -100 -347 -121
-171 -32 -332 -4 -688 121 -489 172 -612 210 -835 256 -123 26 -172 31 -320
34 -96 2 -200 0 -231 -5z"/>
<path d="M4148 7921 c-9 -11 -72 -57 -140 -102 -191 -128 -480 -331 -620 -437
l-128 -95 0 -43 c0 -35 5 -47 31 -68 18 -15 43 -26 60 -26 44 0 124 44 209
115 41 34 147 113 235 175 88 62 193 137 233 167 40 30 98 70 128 89 50 32 55
38 49 62 -4 15 -13 34 -21 43 -18 20 -18 50 0 94 20 47 -3 64 -36 26z"/>
<path d="M4190 7644 c-45 -26 -204 -152 -353 -279 -50 -42 -77 -73 -75 -83 9
-46 139 -59 211 -22 93 49 217 140 305 225 81 77 91 91 77 100 -10 5 -39 27
-65 48 -26 20 -49 37 -51 37 -2 0 -24 -12 -49 -26z"/>
<path d="M4100 5468 c-333 -997 -606 -1818 -608 -1825 -3 -10 77 -13 400 -13
l403 0 122 368 122 367 578 0 577 0 121 -367 120 -368 403 0 c221 0 402 3 402
8 0 4 -163 491 -361 1082 -199 591 -472 1408 -608 1815 l-248 740 -409 3 -409
2 -605 -1812z m1085 571 c35 -112 118 -370 184 -573 67 -203 120 -371 118
-373 -2 -2 -166 -2 -364 -1 l-360 3 48 155 c27 85 106 345 176 577 69 233 128
421 130 419 2 -2 33 -95 68 -207z"/>
<path d="M7138 3426 c-65 -23 -121 -63 -213 -148 -151 -139 -561 -453 -609
-466 -16 -4 -34 -16 -40 -26 -9 -14 -7 -21 12 -33 30 -21 29 -70 -3 -134 -14
-27 -23 -54 -20 -59 3 -5 25 5 48 21 23 17 136 97 251 179 214 152 491 365
625 480 65 57 76 71 79 102 2 26 -3 43 -20 61 -29 33 -63 40 -110 23z"/>
<path d="M3775 3394 c-392 -31 -741 -201 -1079 -524 -211 -201 -355 -360 -450
-499 l-49 -70 44 -57 c117 -153 314 -359 437 -458 l67 -54 110 54 c61 30 153
68 205 84 288 89 454 64 1025 -158 219 -85 332 -122 535 -173 368 -93 616
-101 863 -28 231 68 589 259 952 507 599 409 1257 1020 1291 1198 9 50 -11
108 -48 139 -29 25 -38 27 -90 22 -72 -6 -161 -47 -213 -96 -117 -111 -703
-555 -945 -715 -257 -171 -380 -220 -610 -247 -135 -15 -350 -7 -504 20 -66
12 -214 46 -330 77 -276 73 -419 102 -539 110 -92 7 -98 8 -103 31 -11 41 8
48 140 51 114 3 135 1 307 -38 590 -133 666 -144 919 -137 188 6 261 19 363
64 78 35 99 74 105 195 4 76 2 91 -17 121 -28 45 -49 53 -216 78 -409 61 -584
105 -1120 284 -381 127 -511 166 -660 195 -102 19 -296 31 -390 24z"/>
<path d="M6379 3148 c-85 -73 -177 -152 -204 -175 l-50 -41 29 -31 c16 -17 49
-38 72 -47 l43 -16 83 69 c46 38 148 120 228 182 178 139 163 125 156 148 -10
30 -49 43 -129 43 l-73 0 -155 -132z"/>
</g>
</svg>
